<svg width="88" height="51" viewBox="0 0 88 51" fill="none" xmlns="http://www.w3.org/2000/svg">
<path d="M35.8075 47.4754H13.4007C11.9069 47.4754 10.6847 46.2533 10.6847 44.7595V11.3302C10.6847 9.83645 11.9069 8.61426 13.4007 8.61426H35.8075C37.3013 8.61426 38.5235 9.83645 38.5235 11.3302V44.7368C38.5235 46.2533 37.3013 47.4754 35.8075 47.4754Z" fill="#F7941D"/>
<path d="M36.2158 45.642H14.1258C13.1752 45.642 12.4056 44.8725 12.4056 43.9219V11.0585C12.4056 10.1079 13.1752 9.33838 14.1258 9.33838H36.2158C37.1663 9.33838 37.9359 10.1079 37.9359 11.0585V43.9219C37.9359 44.8499 37.1663 45.642 36.2158 45.642Z" fill="#FFCE06"/>
<path d="M31.0096 21.583H18.1766C17.3392 21.583 16.6602 20.904 16.6602 20.0665V15.5173C16.6602 14.6798 17.3392 14.0009 18.1766 14.0009H31.0096C31.847 14.0009 32.526 14.6798 32.526 15.5173V20.0665C32.526 20.904 31.847 21.583 31.0096 21.583Z" fill="#603913"/>
<path d="M31.779 20.9719H18.5386C17.8144 20.9719 17.2485 20.3835 17.2485 19.6818V14.7252C17.2485 14.0009 17.837 13.4351 18.5386 13.4351H31.779C32.5033 13.4351 33.0691 14.0235 33.0691 14.7252V19.6818C33.0918 20.4061 32.5033 20.9719 31.779 20.9719Z" fill="#3C2415"/>
<path d="M25.7362 26.0643L21.6848 34.5518L24.6045 34.5065L22.7712 41.3417L27.5015 33.2391L24.5819 33.2843L25.7362 26.0643Z" fill="#3C2415"/>
<path d="M35.8077 7.70886H13.4008C11.4091 7.70886 9.77954 9.33845 9.77954 11.3302V44.7368C9.77954 46.7285 11.4091 48.3581 13.4008 48.3581H19.0591V49.535C19.0591 49.9198 19.3534 50.214 19.7381 50.214C20.1229 50.214 20.4171 49.9198 20.4171 49.535V48.3581H28.7914V49.535C28.7914 49.9198 29.0856 50.214 29.4704 50.214C29.8552 50.214 30.1494 49.9198 30.1494 49.535V48.3581H35.8077C37.7994 48.3581 39.429 46.7285 39.429 44.7368V11.3302C39.429 9.33845 37.7994 7.70886 35.8077 7.70886ZM37.6183 44.7594C37.6183 45.7552 36.8035 46.57 35.8077 46.57H13.4008C12.405 46.57 11.5902 45.7552 11.5902 44.7594V11.3302C11.5902 10.3343 12.405 9.51952 13.4008 9.51952H35.8077C36.8035 9.51952 37.6183 10.3343 37.6183 11.3302V44.7594Z" fill="#3C2415"/>
<path d="M44.6807 25.4759L43.6395 24.4347V12.9597H45.7218V23.3936H46.7629V15.042H48.8452V23.3936H49.8863V12.9597H51.9685V24.4347L50.9274 25.4759H48.8452L47.804 24.4347L46.7629 25.4759H44.6807Z" fill="#3C2415"/>
<path d="M52.8962 25.4759V12.9597H54.9785V25.4759H52.8962Z" fill="#3C2415"/>
<path d="M55.9062 25.4759V12.9597H60.0708L61.1119 14.0008V18.1653L60.0708 19.2065L61.1119 20.2476V25.4759H59.0296V20.2476H57.9885V25.4759H55.9062ZM59.0296 18.1653V15.042H57.9885V18.1653H59.0296Z" fill="#3C2415"/>
<path d="M62.0399 25.4759V12.9597H67.2682V15.042H64.1222V18.1653H66.2044V20.2476H64.1222V23.371H67.2455V25.4532H62.0399V25.4759Z" fill="#3C2415"/>
<path d="M70.2556 25.4759V14.0008L71.2967 12.9597H74.4201L75.4612 14.0008V25.4759H73.379V21.3114H72.3379V25.4759H70.2556ZM73.379 19.2065V15.042H72.3379V19.2065H73.379Z" fill="#3C2415"/>
<path d="M76.3893 25.4759V14.0008L77.4304 12.9597H80.5538L81.5949 14.0008V25.4759H79.5127V15.042H78.4715V25.4759H76.3893Z" fill="#3C2415"/>
<path d="M82.5229 25.4759V12.9597H86.6875L87.7286 14.0008V24.4347L86.6875 25.4759H82.5229ZM85.6463 23.3936V15.042H84.6052V23.3936H85.6463Z" fill="#3C2415"/>
<path d="M44.929 43.4241L43.6389 42.134V38.2637H46.2191V40.8439H47.5092V36.9736H44.929L43.6389 35.6835V29.2331L44.929 27.943H48.7993L50.0894 29.2331V33.1034H47.5092V30.5232H46.2191V34.3935H48.7993L50.0894 35.6835V42.134L48.7993 43.4241H44.929Z" fill="#3C2415"/>
<path d="M52.511 43.4241L51.2209 42.134V27.943H53.8011V40.8439H55.0912V30.5232H57.6714V40.8439H58.9615V27.943H61.5417V42.134L60.2516 43.4241H57.6714L56.3813 42.134L55.0912 43.4241H52.511Z" fill="#3C2415"/>
<path d="M62.6735 43.4241V27.943H65.2536V43.4241H62.6735Z" fill="#3C2415"/>
<path d="M68.332 43.4241V30.5232H66.3855V27.943H72.836V30.5232H70.9121V43.4241H68.332Z" fill="#3C2415"/>
<path d="M75.2577 43.4241L73.9677 42.134V29.2331L75.2577 27.943H79.128L80.4181 29.2331V33.1034H77.8379V30.5232H76.5478V40.8439H77.8379V38.2637H80.4181V42.134L79.128 43.4241H75.2577Z" fill="#3C2415"/>
<path d="M81.5492 43.4241V27.943H84.1294V34.3935H85.4195V27.943H87.9997V43.4241H85.4195V36.9736H84.1294V43.4241H81.5492Z" fill="#3C2415"/>
<path d="M9.75699 22.76H2.96704V31.8133H9.75699V22.76Z" fill="#3C2415"/>
<path d="M4.59639 2.69202C5.50171 2.69202 6.22597 3.34448 6.22597 4.16006V24.7738C6.22597 25.5894 5.50171 26.2418 4.59639 26.2418C3.69106 26.2418 2.9668 25.5894 2.9668 24.7738V4.16006C2.9668 3.34448 3.69106 2.69202 4.59639 2.69202Z" fill="#3C2415"/>
<path d="M5.43076 27.8552L7.15088 27.8552L7.15088 1.49164L5.43076 1.49164L5.43076 27.8552Z" fill="#603913"/>
<path d="M5.22035 10.4407C8.10346 10.4407 10.4407 8.10347 10.4407 5.22035C10.4407 2.33723 8.10346 0 5.22035 0C2.33723 0 0 2.33723 0 5.22035C0 8.10347 2.33723 10.4407 5.22035 10.4407Z" fill="#3C2415"/>
<path d="M7.30839 7.15938C8.87351 7.15938 10.1423 5.8906 10.1423 4.32548C10.1423 2.76036 8.87351 1.49158 7.30839 1.49158C5.74327 1.49158 4.47449 2.76036 4.47449 4.32548C4.47449 5.8906 5.74327 7.15938 7.30839 7.15938Z" fill="#754C29"/>
</svg>
